<svg width="48" height="48" viewBox="0 0 48 48" fill="none" xmlns="http://www.w3.org/2000/svg">
<circle cx="24" cy="24" r="24" fill="white"/>
<path d="M19.8606 38C19.3146 38 18.8041 37.729 18.4981 37.2767L16.4404 34.2348C16.4029 34.1794 16.3585 34.129 16.3083 34.0849C15.8011 33.6394 15.0054 33.9995 15.0054 34.6746V36.4235C15.0054 37.2942 14.2996 38 13.4289 38H13.0027C11.8966 38 11 37.1034 11 35.9973V30V24.0027C11 22.8966 11.8966 22 13.0027 22C14.1088 22 15.0054 22.8966 15.0054 24.0027V28.5285C15.0054 29.2653 15.9452 29.5757 16.384 28.9838L18.4623 26.528C18.7805 26.152 19.2481 25.9351 19.7406 25.9351C21.2496 25.9351 21.9889 27.7741 20.8998 28.8185L19.4902 30.1703C18.4805 31.1387 18.4806 32.7531 19.4905 33.7213L20.9991 35.1677C22.069 36.1935 21.3429 38 19.8606 38Z" fill="url(#paint0_linear_57_114)"/>
<path d="M23.2035 31.0543C23.2035 29.8146 23.4534 28.7263 23.9531 27.7894C24.4684 26.8525 25.1633 26.1317 26.0378 25.6272C26.9123 25.1227 27.8883 24.8705 28.9657 24.8705C29.8871 24.8705 30.6913 25.0435 31.3784 25.3894C31.6019 25.4994 31.8406 25.7254 32.0743 26.0006C32.4313 26.421 33.1241 26.1766 33.0615 25.6286C33.0258 25.3168 33.2697 25.0435 33.5836 25.0435H35.1114C36.1544 25.0435 37 25.889 37 26.9321V31.0759V35.2084C37 36.2577 36.1494 37.1083 35.1001 37.1083H33.6754C33.3112 37.1083 33.027 36.7933 33.0643 36.4311C33.1293 35.7997 32.4287 35.5739 32.0499 36.0832C31.8157 36.3981 31.5774 36.6528 31.3549 36.7623C30.6678 37.1083 29.8636 37.2813 28.9423 37.2813C27.8804 37.2813 26.9123 37.029 26.0378 36.5245C25.1633 36.0056 24.4684 35.2777 23.9531 34.3407C23.4534 33.3894 23.2035 32.2939 23.2035 31.0543ZM32.9946 31.0759C32.9946 30.1534 32.7135 29.4254 32.1513 28.8921C31.6048 28.3588 30.9333 28.0921 30.1369 28.0921C29.3405 28.0921 28.6612 28.3588 28.0991 28.8921C27.5525 29.411 27.2792 30.1317 27.2792 31.0543C27.2792 31.9768 27.5525 32.7119 28.0991 33.2597C28.6612 33.793 29.3405 34.0597 30.1369 34.0597C30.9333 34.0597 31.6048 33.793 32.1513 33.2597C32.7135 32.7263 32.9946 31.9984 32.9946 31.0759Z" fill="url(#paint1_linear_57_114)"/>
<path fill-rule="evenodd" clip-rule="evenodd" d="M26.3905 14.9444C26.0044 14.9744 25.5993 15.0171 25.1871 15.0732C26.0407 14.1223 26.3699 12.7114 25.926 11.3917C25.2959 9.52043 23.3507 8.5435 21.5801 9.20887C19.8095 9.87423 18.8846 11.93 19.5143 13.8009C19.8626 14.8358 20.6137 15.5971 21.5147 15.9581C20.7415 16.259 20.0928 16.6258 19.6843 17.0621C19.2134 17.5636 18.364 18.7273 18 20C19.3424 18.0663 23.3679 16.9287 27 16.5421C26.821 16.2574 26.6719 15.9454 26.5586 15.609C26.4847 15.3883 26.429 15.1667 26.3905 14.9444Z" fill="#32E3D2"/>
<path fill-rule="evenodd" clip-rule="evenodd" d="M33.5582 16.4321C33.2278 16.4442 32.8839 16.4588 32.5301 16.4763C33.4064 15.4719 33.7514 13.949 33.307 12.5265C32.6889 10.5498 30.7805 9.51778 29.0433 10.2206C27.3061 10.9235 26.3987 13.0951 27.0168 15.0715C27.2482 15.8114 27.6607 16.4192 28.1773 16.853C23.394 17.4766 18.1902 18.9708 15.9371 22.7166C15.4576 23.5138 15.2328 24.0202 15 25C16.8692 21.2567 23.7196 19.77 27.4015 19.161C27.9951 19.0626 31.4144 18.6721 34 18.3885C33.9193 18.2104 33.8478 18.0239 33.7873 17.8299C33.6425 17.3678 33.5685 16.8968 33.5582 16.4321Z" fill="#8E66C7"/>
<defs>
<linearGradient id="paint0_linear_57_114" x1="42.8883" y1="8.2027" x2="8.87293" y2="8.2027" gradientUnits="userSpaceOnUse">
<stop stop-color="#9A1EE7" stop-opacity="0.32"/>
<stop offset="0.0816663" stop-color="#45719B" stop-opacity="0.816539"/>
<stop offset="0.131666" stop-color="#9436CE" stop-opacity="0.859375"/>
<stop offset="0.456666" stop-color="#9A1EE7"/>
<stop offset="0.791666" stop-color="#06EDC3" stop-opacity="0.791667"/>
<stop offset="0.96954" stop-color="#007AEA"/>
</linearGradient>
<linearGradient id="paint1_linear_57_114" x1="64.028" y1="-40.9807" x2="2.48953" y2="-40.9807" gradientUnits="userSpaceOnUse">
<stop stop-color="#9A1EE7"/>
<stop offset="0.213542" stop-color="#EA004F"/>
<stop offset="0.432292" stop-color="#9436CE" stop-opacity="0.859375"/>
<stop offset="0.59375" stop-color="#45719B" stop-opacity="0.816539"/>
<stop offset="0.6875" stop-color="#06EDC3" stop-opacity="0.791667"/>
<stop offset="0.96954" stop-color="#007AEA"/>
</linearGradient>
</defs>
</svg>
