<svg width="86" height="87" viewBox="0 0 86 87" fill="none" xmlns="http://www.w3.org/2000/svg">
<path fill-rule="evenodd" clip-rule="evenodd" d="M52.7259 5.52813C52.4084 2.17276 49.431 -0.289934 46.0756 0.0275542C45.8427 0.0495944 45.614 0.0844534 45.3903 0.131368C38.687 0.279208 32.0488 1.9752 25.9831 5.02401C19.5825 8.24108 13.9562 12.8943 9.58076 18.579C5.20494 24.2641 2.17264 30.8621 0.810169 37.8286C-0.553236 44.8 -0.20605 51.9573 1.92931 58.649C4.06723 65.3487 7.91625 71.3185 13.1528 75.9828C18.3872 80.6453 24.7725 83.7947 31.684 85.2152C38.4985 86.6157 45.5984 86.2918 52.3735 84.3718C65.7173 81.1958 74.8748 71.4996 78.7119 67.4369C78.7855 67.3589 78.8572 67.2831 78.9269 67.2093C78.9833 67.1497 79.0384 67.0914 79.0923 67.0346C80.4231 66.6732 81.6877 65.9959 82.7646 64.9994C86.2826 61.7442 86.466 56.3154 83.1743 52.8739L75.145 44.3879L68.6995 37.7403C65.4077 34.2987 59.8873 34.1476 56.3693 37.4029C52.8513 40.6581 52.6678 46.0869 55.9596 49.5284L61.9683 55.8106C58.029 59.7906 54.1197 63.4474 47.6101 64.9463L47.3379 65.009L47.0696 65.0868C43.1927 66.2107 39.29 66.3603 35.7102 65.6246C32.1385 64.8906 28.9801 63.2971 26.4555 61.0484C23.933 58.8015 22.0473 55.9051 20.9827 52.569C19.9156 49.2248 19.6914 45.4865 20.4383 41.6674C21.1862 37.8435 22.8808 34.0894 25.4297 30.7778C27.979 27.4657 31.2615 24.7551 34.9649 22.8937C37.2099 21.7653 39.5452 20.9808 41.8868 20.5411L41.9711 21.4325C42.2886 24.7879 45.266 27.2506 48.6214 26.9331C51.9768 26.6156 54.4395 23.6382 54.122 20.2828L52.7259 5.52813Z" fill="#8E4BC2" fill-opacity="0.08"/>
<path d="M35.6226 64C34.8378 64 34.1046 63.6086 33.6679 62.9565L30.7413 58.5863C30.6885 58.5075 30.6259 58.4357 30.5549 58.3727C29.8356 57.7346 28.7 58.2452 28.7 59.2067V61.7442C28.7 62.99 27.6901 64 26.4442 64H25.85C24.276 64 23 62.724 23 61.15V52.5V43.85C23 42.276 24.276 41 25.85 41C27.424 41 28.7 42.276 28.7 43.85V50.3965C28.7 51.4461 30.0408 51.8853 30.6618 51.0392L33.6153 47.5138C34.0704 46.9706 34.7428 46.6568 35.4515 46.6568C37.6039 46.6568 38.6641 49.2749 37.1182 50.7726L35.077 52.7499C33.6385 54.1435 33.6387 56.4509 35.0774 57.8443L37.2593 59.9575C38.778 61.4283 37.7368 64 35.6226 64Z" fill="url(#paint0_linear_56_122)"/>
<path d="M40.3666 54.0155C40.3666 52.2335 40.7221 50.6691 41.4332 49.3223C42.1666 47.9754 43.1555 46.9394 44.3999 46.2142C45.6444 45.4889 47.0333 45.1263 48.5666 45.1263C49.8777 45.1263 51.0222 45.375 52 45.8723C52.3149 46.0289 52.651 46.3489 52.9803 46.739C53.4896 47.3423 54.4833 46.9949 54.3945 46.2103C54.3441 45.765 54.6925 45.375 55.1407 45.375H57.3108C58.796 45.375 60 46.579 60 48.0642V54.0466V60.0131C60 61.507 58.7889 62.7182 57.2949 62.7182H55.2719C54.7519 62.7182 54.3458 62.2686 54.3985 61.7513C54.4907 60.8471 53.4866 60.5263 52.9464 61.2572C52.6161 61.704 52.2803 62.0649 51.9666 62.2209C50.9889 62.7182 49.8444 62.9668 48.5333 62.9668C47.0222 62.9668 45.6444 62.6042 44.3999 61.879C43.1555 61.133 42.1666 60.0867 41.4332 58.7398C40.7221 57.3723 40.3666 55.7975 40.3666 54.0155ZM54.3 54.0466C54.3 52.7204 53.9 51.6741 53.1 50.9074C52.3222 50.1407 51.3666 49.7574 50.2333 49.7574C49.0999 49.7574 48.1333 50.1407 47.3333 50.9074C46.5555 51.6533 46.1666 52.6894 46.1666 54.0155C46.1666 55.3416 46.5555 56.3984 47.3333 57.1858C48.1333 57.9524 49.0999 58.3358 50.2333 58.3358C51.3666 58.3358 52.3222 57.9524 53.1 57.1858C53.9 56.4191 54.3 55.3727 54.3 54.0466Z" fill="url(#paint1_linear_56_122)"/>
<path fill-rule="evenodd" clip-rule="evenodd" d="M44.1873 31.106C43.6726 31.147 43.1325 31.2051 42.5829 31.2816C43.7209 29.9849 44.1599 28.061 43.568 26.2615C42.7279 23.7097 40.1343 22.3775 37.7735 23.2848C35.4127 24.1921 34.1794 26.9954 35.019 29.5466C35.4834 30.958 36.4849 31.9961 37.6863 32.4883C36.6554 32.8986 35.7904 33.3988 35.2457 33.9938C34.6179 34.6777 33.4853 36.2645 33 38C34.7898 35.3631 40.1572 33.8118 45 33.2847C44.7613 32.8964 44.5625 32.471 44.4115 32.0123C44.3129 31.7113 44.2386 31.4092 44.1873 31.106Z" fill="#32E3D2"/>
<path fill-rule="evenodd" clip-rule="evenodd" d="M54.3954 33.5762C53.9434 33.5923 53.4727 33.6118 52.9886 33.6351C54.1877 32.2959 54.6598 30.2653 54.0517 28.3687C53.2058 25.733 50.5943 24.357 48.2172 25.2942C45.84 26.2313 44.5982 29.1268 45.4441 31.7619C45.7607 32.7486 46.3251 33.5589 47.0321 34.1374C40.4865 34.9688 33.3655 36.9611 30.2824 41.9555C29.6262 43.0184 29.3186 43.6935 29 45C31.5578 40.0089 40.9321 38.0267 45.9704 37.2147C46.7827 37.0834 51.4618 36.5628 55 36.1846C54.8896 35.9472 54.7918 35.6985 54.709 35.4399C54.5108 34.8237 54.4095 34.1958 54.3954 33.5762Z" fill="#8E66C7"/>
<defs>
<linearGradient id="paint0_linear_56_122" x1="68.3795" y1="21.1664" x2="19.973" y2="21.1664" gradientUnits="userSpaceOnUse">
<stop stop-color="#9A1EE7" stop-opacity="0.32"/>
<stop offset="0.0816663" stop-color="#45719B" stop-opacity="0.816539"/>
<stop offset="0.131666" stop-color="#9436CE" stop-opacity="0.859375"/>
<stop offset="0.456666" stop-color="#9A1EE7"/>
<stop offset="0.791666" stop-color="#06EDC3" stop-opacity="0.791667"/>
<stop offset="0.96954" stop-color="#007AEA"/>
</linearGradient>
<linearGradient id="paint1_linear_56_122" x1="98.463" y1="-49.5347" x2="10.8889" y2="-49.5347" gradientUnits="userSpaceOnUse">
<stop stop-color="#9A1EE7"/>
<stop offset="0.213542" stop-color="#EA004F"/>
<stop offset="0.432292" stop-color="#9436CE" stop-opacity="0.859375"/>
<stop offset="0.59375" stop-color="#45719B" stop-opacity="0.816539"/>
<stop offset="0.6875" stop-color="#06EDC3" stop-opacity="0.791667"/>
<stop offset="0.96954" stop-color="#007AEA"/>
</linearGradient>
</defs>
</svg>
