<svg width="22" height="22" viewBox="0 0 22 22" fill="none" xmlns="http://www.w3.org/2000/svg">
<g id="pen 3" clip-path="url(#clip0_214_3772)">
<path id="Vector" d="M0.528537 21.2963L0.528903 21.295L2.01 16.1055L5.8953 19.9908L0.705801 21.4719L0.705768 21.4718L0.695275 21.475C0.690719 21.4764 0.680565 21.4785 0.666785 21.4785C0.631787 21.4785 0.591335 21.4624 0.564786 21.436C0.529306 21.4003 0.514909 21.3435 0.528537 21.2963Z" stroke="#808080"/>
<path id="Vector_2" d="M0.662984 22.0002C0.486745 22.0002 0.319234 21.9314 0.194692 21.8069C0.0228166 21.635 -0.0416365 21.3857 0.0270128 21.1538L1.75432 15.1123L6.89345 20.2514L0.843419 21.9744C0.78333 21.9917 0.723073 22.0002 0.662984 22.0002ZM1.77161 15.1897L0.0657854 21.1623C0.00552841 21.3815 0.0657854 21.6135 0.224736 21.7725C0.340718 21.8884 0.499669 21.9529 0.662984 21.9529C0.718877 21.9529 0.778966 21.9443 0.834859 21.9272L6.80751 20.2214L1.77161 15.1897Z" fill="#8D8D8D"/>
<path id="Vector_3" d="M21.4688 4.675L21.4687 4.675V4.67923C21.4687 5.06451 21.3223 5.42224 21.0524 5.69212L20.0395 6.705L15.2853 1.95074L16.297 0.939105C16.5695 0.670234 16.9288 0.521484 17.311 0.521484C17.6962 0.521484 18.0515 0.669239 18.3291 0.943255L21.0555 3.6696C21.3253 3.94303 21.472 4.29699 21.4688 4.675Z" stroke="#808080"/>
<path id="Vector_4" d="M20.0461 7.44215L14.5547 1.95071L15.9339 0.571518C16.3035 0.20192 16.7933 0 17.3132 0C17.8374 0 18.3274 0.20192 18.6926 0.571518L21.4211 3.30003C21.7906 3.66946 21.9925 4.15941 21.9925 4.67923C21.9925 5.20358 21.7906 5.69336 21.4211 6.05859L20.0461 7.44215ZM14.6148 1.95071L20.0461 7.38206L21.3953 6.03275C21.7561 5.67188 21.9539 5.19485 21.9539 4.68359C21.9539 4.17233 21.7561 3.69531 21.3953 3.33444L18.6668 0.601562C18.3059 0.240692 17.8245 0.0429688 17.3132 0.0429688C16.802 0.0429688 16.325 0.240692 15.9641 0.601562L14.6148 1.95071Z" fill="#8D8D8D"/>
<path id="Vector_5" d="M7.94728 18.8073L3.19148 14.0515L13.6744 3.56844L18.4302 8.32424L7.94728 18.8073Z" stroke="#808080"/>
<path id="Vector_6" d="M7.94876 19.5464L2.45312 14.0507L13.6765 2.83154L19.168 8.32298L7.94876 19.5464ZM2.51758 14.0507L7.94876 19.4819L19.1077 8.32298L13.6765 2.8918L2.51758 14.0507Z" fill="#8D8D8D"/>
</g>
<defs>
<clipPath id="clip0_214_3772">
<rect width="22" height="22" fill="white"/>
</clipPath>
</defs>
</svg>
