<svg width="105" height="74" viewBox="0 0 105 74" fill="none" xmlns="http://www.w3.org/2000/svg">
<path d="M8.33887 62.3994C7.18652 62.3994 6.15625 62.2578 5.24805 61.9746C4.33984 61.6914 3.56836 61.252 2.93359 60.6562C2.30859 60.0605 1.83008 59.3037 1.49805 58.3857C1.16602 57.4678 1 56.374 1 55.1045C1 53.9912 1.15625 52.9951 1.46875 52.1162C1.79102 51.2373 2.26465 50.4951 2.88965 49.8896C3.52441 49.2744 4.31543 48.8057 5.2627 48.4834C6.21973 48.1611 7.33301 48 8.60254 48C9.79395 48 10.8438 48.1562 11.752 48.4688C12.6602 48.7715 13.417 49.2158 14.0225 49.8018C14.6377 50.3779 15.0967 51.0859 15.3994 51.9258C15.7119 52.7656 15.8682 53.7227 15.8682 54.7969V58.2207C15.8682 58.773 16.3159 59.2207 16.8682 59.2207H19.6768C19.8721 59.2207 20.0186 59.3379 20.1162 59.5723C20.2139 59.7969 20.2627 60.2168 20.2627 60.832C20.2627 61.3887 20.2139 61.7891 20.1162 62.0332C20.0186 62.2773 19.8721 62.3994 19.6768 62.3994C18.5821 62.491 17.84 62.4977 16.9307 62.458C16.3546 62.4328 15.8682 62.8867 15.8682 63.4633V66.7646C15.8682 66.8623 15.8389 66.9502 15.7803 67.0283C15.7314 67.1064 15.6338 67.1699 15.4873 67.2188C15.3506 67.2676 15.1602 67.3066 14.916 67.3359C14.6719 67.3652 14.3594 67.3799 13.9785 67.3799C13.2461 67.3799 12.7334 67.3262 12.4404 67.2188C12.1572 67.1113 12.0156 66.96 12.0156 66.7646V63.3994C12.0156 62.8471 11.5679 62.3994 11.0156 62.3994H8.33887ZM12.0156 55.1338C12.0156 54.4111 11.9424 53.8008 11.7959 53.3027C11.6494 52.7949 11.4248 52.3848 11.1221 52.0723C10.8291 51.75 10.458 51.5205 10.0088 51.3838C9.55957 51.2373 9.03711 51.1641 8.44141 51.1641C7.8457 51.1641 7.32324 51.2373 6.87402 51.3838C6.43457 51.5303 6.06836 51.7695 5.77539 52.1016C5.49219 52.4238 5.27734 52.8438 5.13086 53.3613C4.99414 53.8691 4.92578 54.4893 4.92578 55.2217C4.92578 55.9541 5.00391 56.5742 5.16016 57.082C5.31641 57.5898 5.5459 58.0049 5.84863 58.3271C6.16113 58.6396 6.54688 58.8691 7.00586 59.0156C7.34765 59.1174 9.6281 59.1813 11.0164 59.2073C11.5686 59.2177 12.0156 58.773 12.0156 58.2207V55.1338Z" fill="black"/>
<path d="M22.2051 56.046C22.2051 54.9718 22.3564 54.005 22.6592 53.1456C22.9717 52.2863 23.4404 51.5587 24.0654 50.963C24.6904 50.3575 25.4717 49.8937 26.4092 49.5714C27.3564 49.2491 28.4648 49.088 29.7344 49.088C30.9258 49.088 31.9756 49.2443 32.8838 49.5568C33.792 49.8595 34.5488 50.3038 35.1543 50.8898C35.7695 51.4659 36.2285 52.1739 36.5312 53.0138C36.8438 53.8536 37 54.8107 37 55.8849V67.8527C37 67.9503 36.9707 68.0382 36.9121 68.1163C36.8633 68.1945 36.7656 68.2579 36.6191 68.3068C36.4824 68.3556 36.292 68.3946 36.0479 68.4239C35.8037 68.4532 35.4912 68.4679 35.1104 68.4679C34.3779 68.4679 33.8652 68.4142 33.5723 68.3068C33.2891 68.1993 33.1475 68.048 33.1475 67.8527V56.2218C33.1475 55.4991 33.0742 54.8888 32.9277 54.3907C32.7812 53.8829 32.5566 53.4728 32.2539 53.1603C31.9609 52.838 31.5898 52.6085 31.1406 52.4718C30.6914 52.3253 30.1689 52.2521 29.5732 52.2521C28.3623 52.2521 27.4736 52.5597 26.9072 53.1749C26.3905 53.7273 27.4303 63.8961 27.6166 66.6465C27.6407 67.0028 27.454 67.3288 27.1447 67.5075L26.9998 67.5912C26.6905 67.7698 26.372 68.0629 26.033 68.1755C25.8884 68.2236 25.7393 68.2663 25.6328 68.3068C25.3594 68.4142 24.8467 68.4679 24.0947 68.4679C23.3623 68.4679 22.8643 68.4142 22.6006 68.3068C22.3369 68.1993 22.2051 68.048 22.2051 67.8527V56.046Z" fill="black"/>
<path d="M40.5 56.046C40.5 54.9718 40.6514 54.005 40.9541 53.1456C41.2666 52.2863 41.7354 51.5587 42.3604 50.963C42.9854 50.3575 43.7666 49.8937 44.7041 49.5714C45.6514 49.2491 46.7598 49.088 48.0293 49.088C49.2207 49.088 50.2705 49.2443 51.1787 49.5568C52.0869 49.8595 52.8438 50.3038 53.4492 50.8898C54.0645 51.4659 54.5234 52.1739 54.8262 53.0138C55.1387 53.8536 55.2949 54.8107 55.2949 55.8849V57.3937C55.2949 57.4913 55.2656 57.5792 55.207 57.6573C55.1582 57.7355 55.0605 57.7989 54.9141 57.8478C54.7773 57.8966 54.5869 57.9357 54.3428 57.965C54.0986 57.9943 53.7861 58.0089 53.4053 58.0089C52.6729 58.0089 52.1602 57.9552 51.8672 57.8478C51.584 57.7404 51.4424 57.589 51.4424 57.3937V56.2218C51.4424 55.4991 51.3691 54.8888 51.2227 54.3907C51.0762 53.8829 50.8516 53.4728 50.5488 53.1603C50.2559 52.838 49.8848 52.6085 49.4355 52.4718C48.9863 52.3253 48.4639 52.2521 47.8682 52.2521C46.6572 52.2521 45.7686 52.5597 45.2021 53.1749C44.6784 53.7348 45.8423 64.0275 46.0205 66.5855C46.0411 66.8816 45.9111 67.1569 45.683 67.3468L45.1385 67.8003C45.0751 67.8532 45.0047 67.8982 44.9303 67.934C44.0206 68.3721 44.2725 68.2765 44 68.3799C43.5 68.5 43.1416 68.4679 42.3896 68.4679C41.6572 68.4679 41.1592 68.4142 40.8955 68.3068C40.6318 68.1993 40.5 68.048 40.5 67.8527V56.046Z" fill="black"/>
<path d="M58.6943 54.7423C58.3721 54.7423 58.0986 54.6495 57.874 54.464C57.6592 54.2784 57.5518 53.9659 57.5518 53.5265V50.172C57.5518 49.9767 57.6885 49.8253 57.9619 49.7179C58.2451 49.6105 58.7529 49.5568 59.4854 49.5568C60.2373 49.5568 60.7451 49.6105 61.0088 49.7179C61.2822 49.8253 61.4189 49.9767 61.4189 50.172V50.5636C61.4189 51.1159 61.8667 51.5636 62.4189 51.5636H73.9287C74.124 51.5636 74.2705 51.6808 74.3682 51.9152C74.4658 52.1398 74.5146 52.5597 74.5146 53.1749C74.5146 53.7316 74.4658 54.132 74.3682 54.3761C74.2705 54.6202 74.124 54.7423 73.9287 54.7423C73.26 54.7423 72.8691 55.5968 73.1838 56.1868C73.3227 56.4474 73.449 56.7227 73.5625 57.0128C73.9238 57.9015 74.1045 58.9562 74.1045 60.1769C74.1045 61.5831 73.9238 62.8429 73.5625 63.9562C73.2109 65.0597 72.6836 65.9972 71.9805 66.7687C71.2871 67.5304 70.4277 68.1163 69.4023 68.5265C68.377 68.9366 67.1953 69.1417 65.8574 69.1417C64.5488 69.1417 63.3916 68.9708 62.3857 68.629C61.3799 68.2872 60.5352 67.7599 59.8516 67.047C59.168 66.3341 58.6504 65.4357 58.2988 64.3517C57.9473 63.2579 57.7715 61.9591 57.7715 60.4552C57.7715 59.1857 57.9619 58.0821 58.3428 57.1446C58.5652 56.6052 58.8288 56.1133 59.1336 55.6689C59.3859 55.3009 59.1405 54.7423 58.6943 54.7423ZM70.0322 60.3673C70.0322 59.5275 69.959 58.7657 69.8125 58.0821C69.6758 57.3888 69.4414 56.798 69.1094 56.3097C68.7871 55.8214 68.3574 55.4454 67.8203 55.1818C67.2832 54.9083 66.6191 54.7716 65.8281 54.7716C65.0371 54.7716 64.3828 54.9181 63.8652 55.2111C63.3574 55.504 62.9521 55.9044 62.6494 56.4122C62.3564 56.92 62.1465 57.5109 62.0195 58.1847C61.9023 58.8585 61.8438 59.5714 61.8438 60.3234C61.8438 61.1827 61.9121 61.964 62.0488 62.6671C62.1855 63.3605 62.4102 63.9513 62.7227 64.4396C63.0449 64.9279 63.4697 65.3038 63.9971 65.5675C64.5244 65.8312 65.1787 65.963 65.96 65.963C66.751 65.963 67.4053 65.8165 67.9229 65.5236C68.4502 65.2208 68.8701 64.8155 69.1826 64.3077C69.4951 63.7999 69.7148 63.2091 69.8418 62.5353C69.9688 61.8517 70.0322 61.129 70.0322 60.3673Z" fill="black"/>
<path d="M84.7949 66.7277C85.0918 66.7277 85.3926 66.7159 85.6973 66.6925C86.0098 66.6691 86.3145 66.6378 86.6113 66.5988C86.916 66.5597 87.2051 66.5089 87.4785 66.4464C87.5493 66.4307 87.6183 66.4145 87.6856 66.3978C88.0327 66.3116 88.282 66.019 88.3496 65.6678L89.1074 61.7355C89.1309 61.6105 89.2207 61.5167 89.377 61.4542C89.5332 61.3917 89.8066 61.3605 90.1973 61.3605C90.5566 61.3605 90.7988 61.3878 90.9238 61.4425C91.0566 61.4894 91.123 61.5675 91.123 61.6769C91.123 61.7158 91.1193 61.7547 91.1119 61.793L89.084 72.2706C89.0605 72.3956 88.9707 72.4894 88.8145 72.5519C88.666 72.6144 88.3926 72.6456 87.9941 72.6456C87.6426 72.6456 87.3965 72.6222 87.2559 72.5753C87.1664 72.5385 87.1071 72.491 87.0779 72.433C87.0494 72.3763 87.0627 72.3096 87.0747 72.2473L87.585 69.5951C87.7249 68.8677 87.0471 68.229 86.3129 68.3276C86.2991 68.3295 86.2853 68.3313 86.2715 68.3331C85.6777 68.4113 85.0996 68.4503 84.5371 68.4503C83.8418 68.4503 83.2129 68.3722 82.6504 68.2159C82.0957 68.0597 81.6191 67.8214 81.2207 67.5011C80.8301 67.173 80.5293 66.7628 80.3184 66.2706C80.1074 65.7706 80.002 65.1808 80.002 64.5011C80.002 64.0558 80.0566 63.5402 80.166 62.9542L81.1855 57.7159C81.209 57.5909 81.2988 57.4972 81.4551 57.4347C81.6191 57.3722 81.8887 57.3409 82.2637 57.3409C82.623 57.3409 82.8691 57.3683 83.002 57.423C83.1348 57.4698 83.2012 57.548 83.2012 57.6573C83.2012 57.6963 83.1974 57.7352 83.19 57.7735L82.1699 63.0128C82.0918 63.4113 82.0527 63.7863 82.0527 64.1378C82.0527 64.6222 82.123 65.0284 82.2637 65.3566C82.4121 65.6847 82.6074 65.9503 82.8496 66.1534C83.0996 66.3566 83.3926 66.505 83.7285 66.5988C84.0645 66.6847 84.4199 66.7277 84.7949 66.7277Z" fill="black"/>
<path d="M102.643 66.8595C102.405 68.0202 102.037 69.0063 101.541 69.8178C101.26 70.2762 101.288 70.8899 101.708 71.2259C101.819 71.3148 101.927 71.3984 102.033 71.4767C102.369 71.7189 102.686 71.8907 102.982 71.9923C103.131 72.047 103.236 72.1134 103.299 72.1915C103.361 72.2696 103.393 72.3868 103.393 72.5431C103.393 72.8321 103.365 73.0665 103.311 73.2462C103.264 73.4337 103.205 73.5782 103.135 73.6798C103.064 73.7892 102.994 73.8634 102.924 73.9025C102.854 73.9415 102.799 73.9611 102.76 73.9611C102.471 73.9611 102.189 73.8986 101.916 73.7736C101.643 73.6564 101.369 73.4962 101.096 73.2931C100.83 73.0978 100.561 72.8712 100.287 72.6134C100.198 72.5296 100.109 72.4445 100.019 72.358C99.696 72.0478 99.2116 71.9876 98.7945 72.15C98.021 72.4511 97.1357 72.6017 96.1387 72.6017C95.4746 72.6017 94.8457 72.5196 94.252 72.3556C93.666 72.1837 93.1543 71.922 92.7168 71.5704C92.2871 71.2189 91.9434 70.7736 91.6855 70.2345C91.4355 69.6876 91.3105 69.0392 91.3105 68.2892C91.3105 67.8517 91.3652 67.3478 91.4746 66.7775L93.3145 57.5196C93.3379 57.3946 93.4238 57.3009 93.5723 57.2384C93.7285 57.1759 94.002 57.1446 94.3926 57.1446C94.7441 57.1446 94.9902 57.172 95.1309 57.2267C95.2236 57.2576 95.2857 57.3004 95.3173 57.3551C95.3501 57.4118 95.3354 57.4817 95.3226 57.546L93.4902 66.754C93.4355 67.0118 93.3965 67.2579 93.373 67.4923C93.3496 67.7267 93.3379 67.9454 93.3379 68.1486C93.3379 69.0782 93.5879 69.7657 94.0879 70.2111C94.5957 70.6564 95.3613 70.879 96.3848 70.879C96.9629 70.879 97.5059 70.7931 98.0137 70.6212C98.5293 70.4493 98.9746 70.1954 99.3496 69.8595C99.7324 69.5236 100.037 69.1134 100.264 68.629C100.48 68.1591 100.6 67.6251 100.624 67.027C100.626 66.9702 100.632 66.9135 100.644 66.8577L102.49 57.5196C102.514 57.3946 102.604 57.3009 102.76 57.2384C102.916 57.1759 103.189 57.1446 103.58 57.1446C103.924 57.1446 104.166 57.172 104.307 57.2267C104.399 57.2576 104.461 57.3003 104.493 57.355C104.526 57.4118 104.511 57.4817 104.498 57.5461L102.643 66.8595Z" fill="black"/>
<path d="M28 9C28 13.9706 23.9706 18 19 18C14.0294 18 10 13.9706 10 9C10 4.02944 14.0294 0 19 0C23.9706 0 28 4.02944 28 9Z" fill="#5844FE"/>
<path d="M60 9C60 13.9706 55.9706 18 51 18C46.0294 18 42 13.9706 42 9C42 4.02944 46.0294 0 51 0C55.9706 0 60 4.02944 60 9Z" fill="#32E3D2"/>
<path d="M83 18C87.9706 18 92 13.9706 92 9C92 4.02944 87.9706 0 83 0C78.0294 0 74 4.02944 74 9C74 13.9706 78.0294 18 83 18Z" fill="#A39AF5"/>
<path d="M42 45C42 38.3696 39.7875 32.0107 35.8492 27.3223C31.911 22.6339 26.5695 20 21 20C15.4305 20 10.089 22.6339 6.15076 27.3223C2.2125 32.0107 0 38.3696 0 45L42 45Z" fill="#5844FE"/>
<path d="M97.8492 27.3223C101.788 32.0107 104 38.3696 104 45L62 45C62 38.3696 64.2125 32.0107 68.1508 27.3223C72.089 22.6339 77.4305 20 83 20C88.5695 20 93.911 22.6339 97.8492 27.3223Z" fill="#A39AF5"/>
<path d="M74 45C74 38.3696 71.7875 32.0107 67.8492 27.3223C63.911 22.6339 58.5695 20 53 20C47.4305 20 42.089 22.6339 38.1508 27.3223C34.2125 32.0107 32 38.3696 32 45L53 45H74Z" fill="#32E3D2"/>
</svg>
