<svg width="20" height="21" viewBox="0 0 20 21" fill="none" xmlns="http://www.w3.org/2000/svg">
<path id="Vector" d="M9.97607 20.9994C7.36587 20.9994 4.75568 20.9994 2.14548 20.9994C0.838157 20.9994 0 20.1188 0 18.7444C0 13.2485 0 7.75266 0 2.25679C0 0.883549 0.838713 0.00409322 2.14826 0.00409322C6.49377 0.00409322 10.8398 0.00584628 15.1853 2.72126e-06C15.477 -0.000581635 15.7012 0.0929154 15.9066 0.310296C17.1677 1.64555 18.435 2.97496 19.7056 4.2997C19.9065 4.5089 20 4.73679 19.9994 5.03599C19.9944 9.61325 19.9961 14.1911 19.9961 18.7684C19.9961 20.1124 19.1502 20.9988 17.869 20.9988C15.2382 21 12.6074 20.9994 9.97607 20.9994ZM3.33259 19.5981C3.33259 19.4941 3.33259 19.4152 3.33259 19.3364C3.33259 17.8275 3.33148 16.3187 3.33259 14.8099C3.3337 13.4975 4.18689 12.6022 5.43856 12.6016C8.47896 12.6011 11.5194 12.6005 14.5603 12.6016C15.8114 12.6022 16.6624 13.4975 16.6635 14.8129C16.6646 16.3287 16.6635 17.8451 16.6635 19.3609C16.6635 19.4374 16.6635 19.514 16.6635 19.5876C16.7153 19.5941 16.7359 19.5981 16.7559 19.5987C17.1516 19.5993 17.5473 19.6017 17.943 19.5993C18.386 19.5964 18.6621 19.313 18.6621 18.8513C18.6632 14.3471 18.6632 9.84232 18.6587 5.3381C18.6587 5.25512 18.6203 5.1511 18.5652 5.09267C17.4304 3.89298 16.2906 2.69798 15.1508 1.50355C15.1135 1.4644 15.064 1.41064 15.0189 1.41005C14.6817 1.40187 14.3444 1.40596 13.9965 1.40596C13.9965 1.51349 13.9965 1.59237 13.9965 1.67185C13.9965 2.9475 13.9971 4.22315 13.9965 5.49821C13.996 6.4174 13.4406 7.00176 12.5668 7.00234C10.8593 7.00351 9.15127 7.00293 7.44379 7.00234C6.55276 7.00176 5.999 6.42383 5.99844 5.49237C5.99788 4.20971 5.99844 2.92646 5.99844 1.6438C5.99844 1.56725 5.99844 1.49011 5.99844 1.40363C5.89214 1.40363 5.81645 1.40363 5.74076 1.40363C4.54697 1.40363 3.35263 1.40363 2.15884 1.40363C1.56333 1.40363 1.33293 1.64847 1.33293 2.28016C1.33293 7.76142 1.33293 13.2427 1.33293 18.7234C1.33293 18.7964 1.33014 18.8695 1.33459 18.9419C1.35686 19.2914 1.61899 19.5841 1.9518 19.5946C2.40205 19.6087 2.85285 19.5981 3.33259 19.5981ZM4.66607 19.5847C8.23408 19.5847 11.7765 19.5847 15.3311 19.5847C15.3311 19.5122 15.3311 19.4544 15.3311 19.3971C15.3311 17.8591 15.3317 16.3211 15.3306 14.783C15.33 14.2811 15.0612 14.0012 14.5804 14.0012C11.526 14.0006 8.47117 14.0006 5.41685 14.0012C4.93154 14.0012 4.66719 14.2764 4.66607 14.7813C4.66496 15.6707 4.66552 16.5595 4.66552 17.4489C4.66607 18.1554 4.66607 18.8619 4.66607 19.5847ZM12.6553 1.4194C10.8727 1.4194 9.10786 1.4194 7.34862 1.4194C7.34862 2.82186 7.34862 4.20912 7.34862 5.59112C9.12567 5.59112 10.886 5.59112 12.6553 5.59112C12.6553 4.19743 12.6553 2.81543 12.6553 1.4194Z" fill="#808080"/>
</svg>
