<svg width="24" height="24" viewBox="0 0 24 24" fill="none" xmlns="http://www.w3.org/2000/svg">
<g id="Frame" filter="url(#filter0_d_130_1286)">
<g id="Group">
<path id="Vector" d="M12 22C17.5242 22 22 17.5242 22 12C22 6.47583 17.5242 2 12 2C6.47583 2 2 6.47583 2 12C2 17.5242 6.47583 22 12 22ZM6.57583 11.7833L16.2175 8.06583C16.665 7.90417 17.0558 8.175 16.9108 8.85167L16.9117 8.85083L15.27 16.585C15.1483 17.1333 14.8225 17.2667 14.3667 17.0083L11.8667 15.1658L10.6608 16.3275C10.5275 16.4608 10.415 16.5733 10.1567 16.5733L10.3342 14.0292L14.9675 9.84333C15.1692 9.66583 14.9225 9.56583 14.6567 9.7425L8.93083 13.3475L6.4625 12.5775C5.92667 12.4075 5.915 12.0417 6.57583 11.7833Z" fill="black"/>
</g>
</g>
<defs>
<filter id="filter0_d_130_1286" x="0" y="0" width="24" height="24" filterUnits="userSpaceOnUse" color-interpolation-filters="sRGB">
<feFlood flood-opacity="0" result="BackgroundImageFix"/>
<feColorMatrix in="SourceAlpha" type="matrix" values="0 0 0 0 0 0 0 0 0 0 0 0 0 0 0 0 0 0 127 0" result="hardAlpha"/>
<feOffset/>
<feGaussianBlur stdDeviation="1"/>
<feComposite in2="hardAlpha" operator="out"/>
<feColorMatrix type="matrix" values="0 0 0 0 0 0 0 0 0 0 0 0 0 0 0 0 0 0 0.25 0"/>
<feBlend mode="normal" in2="BackgroundImageFix" result="effect1_dropShadow_130_1286"/>
<feBlend mode="normal" in="SourceGraphic" in2="effect1_dropShadow_130_1286" result="shape"/>
</filter>
</defs>
</svg>
