<svg width="29" height="27" viewBox="0 0 29 27" fill="none" xmlns="http://www.w3.org/2000/svg">
<path d="M0.609375 23.994C0.609375 17.7004 0.609375 11.4074 0.609375 5.11378C0.628333 5.05671 0.655312 5.00105 0.66625 4.94328C0.932396 3.52716 2.12677 2.34706 3.61427 2.17374C4.52208 2.06806 5.44958 2.12513 6.36833 2.10892C6.48354 2.10681 6.59875 2.10892 6.7351 2.10892C6.7351 1.69325 6.73438 1.30857 6.7351 0.923891C6.73656 0.366601 7.09167 -0.00398608 7.61885 -0.000463384C8.13 0.00305931 8.48146 0.37576 8.48292 0.916846C8.48438 1.30857 8.48292 1.70029 8.48292 2.09061C12.5859 2.09061 16.6525 2.09061 20.7351 2.09061C20.7351 1.88065 20.7351 1.68832 20.7351 1.49598C20.7351 1.25855 20.7278 1.02112 20.7373 0.784392C20.7548 0.34617 21.1376 0.00235477 21.5992 -0.000463384C22.0724 -0.00328154 22.4691 0.344761 22.48 0.792847C22.4909 1.22755 22.4822 1.66295 22.4822 2.10892C23.3623 2.10892 24.1994 2.10681 25.0372 2.10963C26.6589 2.11456 28.0968 3.19814 28.4971 4.7136C28.5328 4.84747 28.5715 4.98062 28.6094 5.11449C28.6094 11.4081 28.6094 17.7011 28.6094 23.9947C28.5919 24.0335 28.5664 24.0715 28.5576 24.1117C28.2995 25.3918 27.5353 26.2739 26.2935 26.7706C26.0376 26.8727 25.7598 26.9249 25.4915 27.0003C18.2362 27.0003 10.981 27.0003 3.72583 27.0003C3.67625 26.9827 3.62812 26.958 3.57708 26.9474C2.21208 26.6727 1.28823 25.9005 0.800417 24.645C0.71875 24.4343 0.672083 24.211 0.609375 23.994ZM2.35865 9.2924C2.35865 9.38962 2.35865 9.47558 2.35865 9.56153C2.35865 14.1664 2.35792 18.7713 2.35938 23.3768C2.35938 24.5619 3.14542 25.3129 4.38281 25.3136C11.1998 25.3143 18.016 25.3143 24.833 25.3136C26.0821 25.3136 26.8601 24.5619 26.8608 23.3543C26.8616 18.7579 26.8608 14.1615 26.8608 9.56576C26.8608 9.47346 26.8608 9.38188 26.8608 9.2931C18.673 9.2924 10.529 9.2924 2.35865 9.2924ZM2.39583 7.57614C10.5428 7.57614 18.692 7.57614 26.8521 7.57614C26.8521 6.85751 26.8878 6.15438 26.8426 5.45548C26.7872 4.59876 26.1674 3.91888 25.2836 3.8442C24.3649 3.7667 23.4338 3.82729 22.4822 3.82729C22.4822 4.09079 22.4851 4.36133 22.4815 4.63117C22.4749 5.12153 22.0986 5.48366 21.6028 5.48155C21.1114 5.47944 20.7402 5.11237 20.7351 4.6199C20.7322 4.35077 20.7344 4.08163 20.7344 3.81179C16.6335 3.81179 12.5662 3.81179 8.48219 3.81179C8.48219 4.08304 8.48365 4.33668 8.48219 4.59031C8.47854 5.10814 8.11906 5.47803 7.61812 5.48155C7.1026 5.48507 6.73802 5.11378 6.7351 4.58185C6.73365 4.32258 6.7351 4.06261 6.7351 3.79841C5.83677 3.79841 4.98 3.77445 4.12469 3.80475C3.23729 3.83716 2.50229 4.44447 2.41187 5.29767C2.33385 6.04377 2.39583 6.80326 2.39583 7.57614Z" fill="#9F9F9F"/>
</svg>
