<svg width="46" height="47" viewBox="0 0 46 47" fill="none" xmlns="http://www.w3.org/2000/svg">
<g clip-path="url(#clip0_2670_671)">
<path d="M36.9958 17.7922C36.6215 17.9245 36.4253 18.3352 36.5576 18.7094C37.1 20.2443 37.375 21.8561 37.375 23.5C37.375 31.4265 30.9264 37.875 23 37.875C15.0736 37.875 8.625 31.4265 8.625 23.5C8.625 15.5735 15.0736 9.125 23 9.125C26.4097 9.125 29.7157 10.3399 32.3089 12.5459C32.6112 12.8029 33.0648 12.7665 33.3221 12.4641C33.5793 12.1618 33.5427 11.7082 33.2403 11.451C30.3875 9.02402 26.7507 7.6875 23 7.6875C14.2809 7.6875 7.1875 14.7809 7.1875 23.5C7.1875 32.2191 14.2809 39.3125 23 39.3125C31.7191 39.3125 38.8125 32.2191 38.8125 23.5C38.8125 21.6925 38.5098 19.9195 37.913 18.2305C37.7807 17.8562 37.3701 17.6599 36.9958 17.7922Z" fill="black"/>
<path d="M35.2468 15.9682C35.3827 16.1886 35.6182 16.3099 35.8594 16.3099C35.988 16.3099 36.1182 16.2753 36.2358 16.203C36.5737 15.9948 36.6789 15.5519 36.4705 15.214C36.1516 14.6965 35.7987 14.1919 35.4218 13.7141C35.1759 13.4023 34.7239 13.349 34.4123 13.595C34.1006 13.8409 34.0473 14.2929 34.2931 14.6044C34.636 15.0388 34.9568 15.4978 35.2468 15.9682Z" fill="black"/>
<path d="M43.125 19.1875H41.9217C41.4367 17.0449 40.6006 15.0254 39.43 13.1688L40.2799 12.3189C41.4009 11.1979 41.4009 9.37405 40.2799 8.25298L38.247 6.21999C37.1261 5.09928 35.3021 5.09919 34.1811 6.21999L33.3312 7.07C31.4747 5.89943 29.4552 5.06334 27.3125 4.57828V3.375C27.3125 1.78971 26.0228 0.5 24.4375 0.5H21.5625C19.9772 0.5 18.6875 1.78971 18.6875 3.375V4.57828C16.5448 5.06343 14.5253 5.89943 12.6688 7.07L11.8189 6.21999C10.698 5.09928 8.87396 5.09919 7.75298 6.21999L5.72008 8.25307C4.5991 9.37405 4.5991 11.1979 5.72008 12.3189L6.57 13.1688C5.39943 15.0255 4.56334 17.045 4.07828 19.1875H2.875C1.28971 19.1875 0 20.4772 0 22.0625V24.9375C0 26.5228 1.28971 27.8125 2.875 27.8125H4.07828C4.56334 29.9551 5.39943 31.9745 6.57 33.8311L5.72008 34.6811C4.5991 35.8021 4.5991 37.626 5.72008 38.747L7.75298 40.78C8.87387 41.9008 10.6978 41.9011 11.8189 40.7799L12.6688 39.9299C14.5254 41.1006 16.5448 41.9367 18.6874 42.4216V43.625C18.6874 45.2103 19.9771 46.5 21.5624 46.5H24.4374C26.0227 46.5 27.3124 45.2103 27.3124 43.625V42.4216C29.4549 41.9367 31.4744 41.1006 33.331 39.93L34.181 40.78C35.3019 41.9008 37.1259 41.901 38.2468 40.78L40.2797 38.7469C41.4007 37.626 41.4007 35.8021 40.2797 34.6811L39.4298 33.8312C40.6004 31.9746 41.4365 29.9551 41.9215 27.8125H43.125C44.7103 27.8125 46 26.5228 46 24.9375V22.0625C46 20.4772 44.7103 19.1875 43.125 19.1875ZM44.5625 24.9375C44.5625 25.7301 43.9176 26.375 43.125 26.375H41.3386C40.9947 26.375 40.699 26.6187 40.6332 26.9563C40.1726 29.3203 39.2574 31.5305 37.9134 33.5257C37.7213 33.8109 37.7581 34.1923 38.0013 34.4355L39.2634 35.6976C39.8239 36.2581 39.8239 37.1701 39.2634 37.7305L37.2305 39.7635C36.67 40.324 35.7581 40.324 35.1975 39.7635L33.9354 38.5013C33.6923 38.2582 33.3107 38.2213 33.0257 38.4134C31.0303 39.7575 28.8201 40.6726 26.4563 41.1331C26.1187 41.1989 25.875 41.4946 25.875 41.8386V43.625C25.875 44.4176 25.2301 45.0625 24.4375 45.0625H21.5625C20.7699 45.0625 20.125 44.4176 20.125 43.625V41.8385C20.125 41.4946 19.8813 41.1989 19.5437 41.133C17.1798 40.6725 14.9696 39.7573 12.9744 38.4133C12.8521 38.331 12.7123 38.2907 12.5731 38.2907C12.3877 38.2907 12.2036 38.3623 12.0646 38.5013L10.8025 39.7635C10.2419 40.324 9.33 40.324 8.76947 39.7635L6.73657 37.7305C6.17613 37.1701 6.17613 36.2581 6.73657 35.6976L7.99879 34.4354C8.242 34.1922 8.27883 33.8108 8.08666 33.5256C6.74268 31.5304 5.82754 29.3202 5.36691 26.9563C5.30114 26.6187 5.00537 26.375 4.66145 26.375H2.875C2.0824 26.375 1.4375 25.7301 1.4375 24.9375V22.0625C1.4375 21.2699 2.0824 20.625 2.875 20.625H4.66136C5.00529 20.625 5.30105 20.3813 5.36682 20.0437C5.82745 17.6798 6.7425 15.4697 8.08657 13.4743C8.27874 13.1891 8.24182 12.8077 7.99861 12.5645L6.73648 11.3024C6.17604 10.7419 6.17604 9.82991 6.73648 9.26947L8.76947 7.23648C9.33 6.67613 10.2419 6.67595 10.8025 7.23648L12.0646 8.4987C12.3078 8.74182 12.6892 8.77874 12.9743 8.58657C14.9693 7.24259 17.1796 6.32754 19.5437 5.86691C19.8813 5.80114 20.125 5.50537 20.125 5.16136V3.375C20.125 2.5824 20.7699 1.9375 21.5625 1.9375H24.4375C25.2301 1.9375 25.875 2.5824 25.875 3.375V5.16136C25.875 5.50529 26.1187 5.80105 26.4563 5.86691C28.8203 6.32762 31.0306 7.24268 33.0257 8.58657C33.3108 8.77874 33.6922 8.74191 33.9354 8.4987L35.1975 7.23648C35.7581 6.67613 36.67 6.67595 37.2305 7.23648L39.2634 9.26947C39.8239 9.82991 39.8239 10.7419 39.2634 11.3024L38.0013 12.5645C37.7581 12.8077 37.7213 13.1891 37.9134 13.4743C39.2575 15.4695 40.1726 17.6798 40.6331 20.0437C40.6989 20.3813 40.9946 20.625 41.3386 20.625H43.125C43.9176 20.625 44.5625 21.2699 44.5625 22.0625V24.9375Z" fill="black"/>
<path d="M18.9443 26.9935L16.2661 27.689C16.2617 27.6901 16.2572 27.6913 16.2528 27.6925C14.5481 28.1702 13.6562 29.8413 13.6562 31.2453V32.0217C13.6562 32.8713 14.3999 33.5626 15.314 33.5626L22.9883 33.5618C22.9939 33.5619 22.9992 33.5626 23.0048 33.5626C23.0103 33.5626 23.0157 33.5619 23.0213 33.5618L30.6957 33.561C31.6097 33.561 32.3534 32.8697 32.3534 32.02V31.2437C32.3534 29.8396 31.4615 28.1684 29.7568 27.6909C29.7524 27.6897 29.748 27.6885 29.7436 27.6873L27.0655 26.9919C26.8385 26.925 26.6591 26.8074 26.6203 26.746L26.6185 25.2893C26.6208 25.2866 26.6231 25.2842 26.6254 25.2816C27.5437 24.184 28.0494 22.7619 28.0494 21.2773V20.1923C28.9655 17.2079 28.3199 14.6202 27.9886 13.8671C27.9875 13.8646 27.9861 13.8624 27.9849 13.8598C27.9785 13.8457 27.9714 13.8321 27.9642 13.8186C27.9601 13.8108 27.9561 13.8029 27.9516 13.7952C27.9447 13.7833 27.9371 13.7719 27.9295 13.7604C27.9238 13.7516 27.9181 13.7427 27.912 13.7342C27.9055 13.7252 27.8983 13.7166 27.8914 13.7079C27.8835 13.6979 27.8756 13.6879 27.8672 13.6784C27.8613 13.6717 27.8548 13.6655 27.8486 13.6591C27.8385 13.6486 27.8286 13.6382 27.818 13.6284C27.8121 13.623 27.8058 13.6181 27.7999 13.613C27.7885 13.6031 27.7771 13.5932 27.765 13.5841C27.7581 13.5788 27.7508 13.5741 27.7437 13.5692C27.7322 13.5611 27.7208 13.5529 27.7089 13.5456C27.6996 13.5398 27.6899 13.5348 27.6804 13.5295C27.6702 13.5238 27.6601 13.5178 27.6496 13.5126C27.6377 13.5068 27.6255 13.5016 27.6133 13.4964C27.6046 13.4927 27.596 13.4886 27.5871 13.4852C27.5738 13.4801 27.56 13.4758 27.5464 13.4715C27.5381 13.4689 27.5299 13.466 27.5216 13.4636C27.5083 13.4599 27.4948 13.4573 27.4812 13.4543C27.4718 13.4523 27.4625 13.45 27.453 13.4484C27.4412 13.4464 27.4291 13.445 27.4172 13.4436C27.4054 13.4422 27.3937 13.4405 27.3819 13.4397C27.3721 13.439 27.3623 13.439 27.3524 13.4387C27.3379 13.4383 27.3236 13.4379 27.309 13.4384C27.301 13.4386 27.2929 13.4394 27.2849 13.4399C27.2687 13.4409 27.2525 13.4422 27.2363 13.4444C27.2339 13.4447 27.2315 13.4447 27.229 13.445C26.5364 13.5441 25.6915 13.3417 24.797 13.1276C23.2147 12.7487 21.4302 12.3224 19.8668 13.4496C18.3551 13.5795 17.2832 14.8499 17.2832 16.567C17.2832 17.8157 17.8626 20.0459 17.9954 20.5407V21.141C17.9954 22.6907 18.5317 24.1231 19.3914 25.1917L19.3894 26.7478C19.3507 26.809 19.1713 26.9266 18.9443 26.9935ZM19.4328 20.8952C19.4328 20.1808 19.7352 19.1361 19.9611 18.4752C23.2177 18.55 25.6749 19.332 26.6119 19.6788V20.0777C26.6119 20.0798 26.6119 20.0821 26.6119 20.0842V21.277C26.6119 22.544 26.1355 23.7048 25.3922 24.5081C25.3902 24.5101 25.3884 24.5122 25.3865 24.5141C24.7476 25.202 23.9126 25.6263 23.0128 25.6263C21.1057 25.6263 19.4329 23.5302 19.4329 21.1406V20.8952H19.4328ZM20.8272 26.4494C21.4921 26.8413 22.235 27.0639 23.0128 27.0639C23.7762 27.0639 24.5131 26.8663 25.1825 26.4921L25.1828 26.7556C25.1828 27.112 25.3113 27.4108 25.5108 27.6552L23.0079 29.1324L20.5154 27.6368C20.7054 27.3963 20.8269 27.1043 20.8269 26.7581L20.8272 26.4494ZM15.314 32.1251C15.1672 32.1251 15.0938 32.0413 15.0938 32.0217V31.2453C15.0938 30.3848 15.623 29.3653 16.6347 29.0784L19.0698 28.4461L22.2861 30.3758V32.1243L15.314 32.1251ZM30.9159 31.2436V32.02C30.9159 32.0397 30.8425 32.1234 30.6956 32.1234L23.7235 32.1241V30.3791L26.983 28.4554L29.3751 29.0767C30.3868 29.3637 30.9159 30.3831 30.9159 31.2436ZM20.1243 14.8751C20.1265 14.8751 20.1287 14.8748 20.1309 14.8747C20.1524 14.8745 20.1738 14.8735 20.1952 14.8715C20.2022 14.8709 20.2089 14.8695 20.2158 14.8686C20.2323 14.8665 20.2486 14.8644 20.265 14.8612C20.2738 14.8594 20.2823 14.857 20.291 14.8549C20.3051 14.8515 20.3192 14.8483 20.3332 14.8441C20.3427 14.8412 20.3519 14.8376 20.3613 14.8343C20.374 14.8299 20.3867 14.8256 20.3993 14.8204C20.4093 14.8162 20.4188 14.8114 20.4285 14.8069C20.44 14.8015 20.4515 14.7964 20.4627 14.7904C20.4737 14.7845 20.4841 14.7779 20.4946 14.7715C20.5041 14.7658 20.5138 14.7604 20.523 14.7542C20.5364 14.7453 20.5491 14.7355 20.5618 14.7257C20.5675 14.7213 20.5735 14.7175 20.5791 14.7129C21.6366 13.8487 23.0091 14.1775 24.4622 14.5252C25.2443 14.7125 26.0475 14.9044 26.8273 14.9072C27.0148 15.5997 27.199 16.8267 27.0011 18.2881C25.8312 17.862 23.0863 17.0312 19.4609 17.0312C19.4593 17.0312 19.4578 17.0314 19.4563 17.0314C19.4386 17.0315 19.421 17.0327 19.4034 17.0341C19.3967 17.0347 19.3899 17.0348 19.3833 17.0355C19.3683 17.0372 19.3536 17.0398 19.3389 17.0423C19.3297 17.0439 19.3204 17.0451 19.3115 17.047C19.3006 17.0493 19.29 17.0524 19.2793 17.0552C19.267 17.0585 19.2546 17.0613 19.2425 17.0651C19.2355 17.0674 19.2286 17.0703 19.2217 17.0727C19.2067 17.078 19.1916 17.0833 19.1771 17.0895C19.1716 17.0919 19.1663 17.0948 19.1609 17.0974C19.1455 17.1045 19.1302 17.1116 19.1154 17.1196C19.107 17.1242 19.099 17.1296 19.0908 17.1346C19.0796 17.1414 19.0682 17.1479 19.0574 17.1552C19.0437 17.1645 19.0307 17.1747 19.0177 17.185C19.0128 17.1887 19.0077 17.1921 19.003 17.1961C18.9878 17.2086 18.9734 17.2221 18.9593 17.2359C18.957 17.2381 18.9545 17.2401 18.9523 17.2424C18.9395 17.2551 18.9276 17.2688 18.9157 17.2826C18.9124 17.2865 18.9087 17.2901 18.9055 17.294C18.8963 17.3052 18.8879 17.317 18.8794 17.3289C18.8739 17.3363 18.8682 17.3436 18.8631 17.3513C18.8571 17.3603 18.8518 17.3698 18.8463 17.379C18.8393 17.3904 18.8322 17.4018 18.8259 17.4138C18.8222 17.4209 18.8189 17.4284 18.8154 17.4357C18.8108 17.4451 18.8059 17.4545 18.8017 17.4643C18.752 17.1252 18.7207 16.8137 18.7207 16.5669C18.7207 15.7865 19.0882 14.8751 20.1243 14.8751Z" fill="black"/>
</g>
<defs>
<clipPath id="clip0_2670_671">
<rect width="46" height="46" fill="white" transform="translate(0 0.5)"/>
</clipPath>
</defs>
</svg>
