<svg width="52" height="52" viewBox="0 0 52 52" fill="none" xmlns="http://www.w3.org/2000/svg">
<mask id="path-1-inside-1_2670_656" fill="white">
<path d="M16.9244 34.2082L10.9347 35.7636C10.9248 35.7662 10.9148 35.7688 10.9049 35.7716C7.09235 36.8398 5.09766 40.5774 5.09766 43.7175V45.4538C5.09766 47.354 6.7608 48.9 8.80533 48.9L25.9689 48.8982C25.9814 48.8984 25.9932 48.9 26.0057 48.9C26.0181 48.9 26.0302 48.8984 26.0426 48.8982L43.2064 48.8964C45.2507 48.8964 46.9139 47.3504 46.9139 45.4501V43.7138C46.9139 40.5736 44.9192 36.836 41.1066 35.768C41.0968 35.7652 41.0869 35.7626 41.0771 35.76L35.0876 34.2045C34.5798 34.055 34.1785 33.792 34.0919 33.6548L34.0879 30.3968C34.0929 30.3908 34.0982 30.3854 34.1032 30.3795C36.157 27.9247 37.288 24.7443 37.288 21.4238V18.9973C39.337 12.3226 37.8931 6.53523 37.152 4.85099C37.1496 4.84536 37.1464 4.84034 37.1438 4.83471C37.1295 4.80316 37.1136 4.77262 37.0975 4.74248C37.0883 4.725 37.0795 4.70732 37.0694 4.69024C37.0539 4.66351 37.0369 4.638 37.02 4.61228C37.0071 4.59258 36.9945 4.57269 36.9808 4.5538C36.9661 4.53351 36.9501 4.51442 36.9346 4.49493C36.9169 4.47262 36.8992 4.45012 36.8805 4.42902C36.8673 4.41395 36.8528 4.40009 36.8389 4.38582C36.8164 4.36231 36.7941 4.339 36.7704 4.3171C36.7574 4.30504 36.7433 4.29399 36.73 4.28254C36.7045 4.26043 36.679 4.23833 36.6521 4.21804C36.6366 4.20618 36.6203 4.19573 36.6044 4.18468C36.5787 4.1666 36.5532 4.14831 36.5265 4.13184C36.5058 4.11898 36.4841 4.10772 36.4628 4.09587C36.4399 4.08321 36.4174 4.06975 36.3939 4.05809C36.3673 4.04503 36.34 4.03358 36.3127 4.02192C36.2932 4.01348 36.2739 4.00444 36.254 3.99681C36.2243 3.98535 36.1935 3.97591 36.163 3.96627C36.1445 3.96044 36.1262 3.95381 36.1075 3.94858C36.0778 3.94034 36.0477 3.93432 36.0173 3.92769C35.9962 3.92327 35.9755 3.91804 35.9542 3.91442C35.9277 3.91 35.9008 3.90699 35.874 3.90377C35.8477 3.90056 35.8216 3.89694 35.7951 3.89513C35.7732 3.89353 35.7513 3.89353 35.7292 3.89292C35.6968 3.89192 35.6647 3.89112 35.6321 3.89212C35.6142 3.89252 35.5961 3.89433 35.5783 3.89554C35.5421 3.89775 35.5057 3.90076 35.4696 3.90558C35.4641 3.90619 35.4587 3.90618 35.4533 3.90699C33.9043 4.12862 32.0145 3.67591 30.0139 3.19708C26.4753 2.34953 22.4841 1.39629 18.9876 3.91724C15.6066 4.20779 13.2094 7.04903 13.2094 10.8893C13.2094 13.6819 14.5053 18.6698 14.8023 19.7765V21.119C14.8023 24.5849 16.0017 27.7887 17.9244 30.1786L17.92 33.6588C17.8334 33.7956 17.4321 34.0587 16.9244 34.2082ZM18.017 20.5694C18.017 18.9716 18.6932 16.6351 19.1986 15.157C26.4819 15.3242 31.9775 17.0733 34.0731 17.8487V18.7409C34.0731 18.7457 34.0731 18.7507 34.0731 18.7556V21.4232C34.0731 24.257 33.0075 26.8531 31.3451 28.6497C31.3407 28.6541 31.3367 28.6587 31.3325 28.6631C29.9034 30.2015 28.0361 31.1505 26.0238 31.1505C21.7585 31.1505 18.0172 26.4625 18.0172 21.1182V20.5694H18.017ZM21.1356 32.9913C22.6225 33.8678 24.284 34.3657 26.0236 34.3657C27.7311 34.3657 29.379 33.9236 30.8762 33.0869L30.877 33.6761C30.877 34.4732 31.1643 35.1415 31.6104 35.6881L26.0127 38.9918L20.4381 35.6471C20.8631 35.1092 21.1348 34.4561 21.1348 33.6817L21.1356 32.9913ZM8.80513 45.685C8.4768 45.685 8.31263 45.4978 8.31263 45.4538V43.7175C8.31263 41.7929 9.49635 39.5127 11.7591 38.8711L17.2051 37.4569L24.3984 41.7728V45.6832L8.80513 45.685ZM43.6989 43.7136V45.4499C43.6989 45.4941 43.5347 45.6812 43.2062 45.6812L27.6132 45.6828V41.7802L34.9029 37.4778L40.253 38.8673C42.5156 39.5093 43.6989 41.7891 43.6989 43.7136ZM19.5635 7.10529C19.5685 7.10529 19.5733 7.10469 19.5783 7.10449C19.6263 7.10408 19.6742 7.10188 19.722 7.09725C19.7377 7.09585 19.7527 7.09283 19.7682 7.09082C19.805 7.0862 19.8415 7.08138 19.8781 7.07414C19.8978 7.07033 19.9169 7.0649 19.9364 7.06008C19.9679 7.05264 19.9993 7.04541 20.0306 7.03597C20.0519 7.02954 20.0724 7.0215 20.0935 7.01407C20.1221 7.00422 20.1504 6.99458 20.1785 6.98292C20.2008 6.97368 20.2221 6.96283 20.2438 6.95278C20.2695 6.94072 20.2953 6.92927 20.3204 6.91581C20.3449 6.90275 20.3682 6.88788 20.3917 6.87361C20.4128 6.86095 20.4345 6.8489 20.4552 6.83503C20.4851 6.81494 20.5135 6.79304 20.542 6.77113C20.5547 6.76129 20.5681 6.75285 20.5806 6.7426C22.9458 4.8098 26.0153 5.54522 29.2653 6.32284C31.0144 6.7418 32.8108 7.1708 34.5549 7.17723C34.9741 8.72584 35.3862 11.47 34.9435 14.7387C32.3271 13.7856 26.1881 11.9276 18.0797 11.9276C18.0763 11.9276 18.0729 11.928 18.0695 11.928C18.0299 11.9282 17.9905 11.9308 17.9511 11.934C17.9363 11.9352 17.921 11.9356 17.9061 11.9372C17.8728 11.9408 17.8398 11.9466 17.8069 11.9523C17.7864 11.9559 17.7657 11.9585 17.7456 11.9627C17.7213 11.9679 17.6976 11.975 17.6736 11.9812C17.6461 11.9884 17.6184 11.9949 17.5913 12.0033C17.5756 12.0083 17.5603 12.015 17.5448 12.0204C17.5113 12.0322 17.4775 12.0439 17.445 12.058C17.4327 12.0632 17.4209 12.0698 17.4088 12.0754C17.3745 12.0913 17.3401 12.1072 17.3071 12.1253C17.2883 12.1355 17.2704 12.1476 17.2521 12.1588C17.227 12.1739 17.2014 12.1884 17.1773 12.2048C17.1468 12.2255 17.1177 12.2485 17.0885 12.2714C17.0777 12.2798 17.0662 12.2874 17.0558 12.2963C17.0218 12.3242 16.9895 12.3543 16.9579 12.3853C16.9529 12.3901 16.9473 12.3947 16.9422 12.3998C16.9137 12.4283 16.887 12.4588 16.8605 12.4898C16.853 12.4984 16.8448 12.5065 16.8376 12.5153C16.8171 12.5402 16.7984 12.5667 16.7793 12.5933C16.767 12.6099 16.7542 12.6262 16.7427 12.6435C16.7294 12.6636 16.7176 12.6847 16.7051 12.7054C16.6897 12.7309 16.6738 12.7564 16.6597 12.7831C16.6513 12.799 16.6441 12.8159 16.6362 12.8322C16.6258 12.8533 16.6149 12.8742 16.6055 12.8961C16.4944 12.1377 16.4244 11.4411 16.4244 10.8891C16.4242 9.14358 17.2463 7.10529 19.5635 7.10529Z"/>
</mask>
<path d="M16.9244 34.2082L10.9347 35.7636C10.9248 35.7662 10.9148 35.7688 10.9049 35.7716C7.09235 36.8398 5.09766 40.5774 5.09766 43.7175V45.4538C5.09766 47.354 6.7608 48.9 8.80533 48.9L25.9689 48.8982C25.9814 48.8984 25.9932 48.9 26.0057 48.9C26.0181 48.9 26.0302 48.8984 26.0426 48.8982L43.2064 48.8964C45.2507 48.8964 46.9139 47.3504 46.9139 45.4501V43.7138C46.9139 40.5736 44.9192 36.836 41.1066 35.768C41.0968 35.7652 41.0869 35.7626 41.0771 35.76L35.0876 34.2045C34.5798 34.055 34.1785 33.792 34.0919 33.6548L34.0879 30.3968C34.0929 30.3908 34.0982 30.3854 34.1032 30.3795C36.157 27.9247 37.288 24.7443 37.288 21.4238V18.9973C39.337 12.3226 37.8931 6.53523 37.152 4.85099C37.1496 4.84536 37.1464 4.84034 37.1438 4.83471C37.1295 4.80316 37.1136 4.77262 37.0975 4.74248C37.0883 4.725 37.0795 4.70732 37.0694 4.69024C37.0539 4.66351 37.0369 4.638 37.02 4.61228C37.0071 4.59258 36.9945 4.57269 36.9808 4.5538C36.9661 4.53351 36.9501 4.51442 36.9346 4.49493C36.9169 4.47262 36.8992 4.45012 36.8805 4.42902C36.8673 4.41395 36.8528 4.40009 36.8389 4.38582C36.8164 4.36231 36.7941 4.339 36.7704 4.3171C36.7574 4.30504 36.7433 4.29399 36.73 4.28254C36.7045 4.26043 36.679 4.23833 36.6521 4.21804C36.6366 4.20618 36.6203 4.19573 36.6044 4.18468C36.5787 4.1666 36.5532 4.14831 36.5265 4.13184C36.5058 4.11898 36.4841 4.10772 36.4628 4.09587C36.4399 4.08321 36.4174 4.06975 36.3939 4.05809C36.3673 4.04503 36.34 4.03358 36.3127 4.02192C36.2932 4.01348 36.2739 4.00444 36.254 3.99681C36.2243 3.98535 36.1935 3.97591 36.163 3.96627C36.1445 3.96044 36.1262 3.95381 36.1075 3.94858C36.0778 3.94034 36.0477 3.93432 36.0173 3.92769C35.9962 3.92327 35.9755 3.91804 35.9542 3.91442C35.9277 3.91 35.9008 3.90699 35.874 3.90377C35.8477 3.90056 35.8216 3.89694 35.7951 3.89513C35.7732 3.89353 35.7513 3.89353 35.7292 3.89292C35.6968 3.89192 35.6647 3.89112 35.6321 3.89212C35.6142 3.89252 35.5961 3.89433 35.5783 3.89554C35.5421 3.89775 35.5057 3.90076 35.4696 3.90558C35.4641 3.90619 35.4587 3.90618 35.4533 3.90699C33.9043 4.12862 32.0145 3.67591 30.0139 3.19708C26.4753 2.34953 22.4841 1.39629 18.9876 3.91724C15.6066 4.20779 13.2094 7.04903 13.2094 10.8893C13.2094 13.6819 14.5053 18.6698 14.8023 19.7765V21.119C14.8023 24.5849 16.0017 27.7887 17.9244 30.1786L17.92 33.6588C17.8334 33.7956 17.4321 34.0587 16.9244 34.2082ZM18.017 20.5694C18.017 18.9716 18.6932 16.6351 19.1986 15.157C26.4819 15.3242 31.9775 17.0733 34.0731 17.8487V18.7409C34.0731 18.7457 34.0731 18.7507 34.0731 18.7556V21.4232C34.0731 24.257 33.0075 26.8531 31.3451 28.6497C31.3407 28.6541 31.3367 28.6587 31.3325 28.6631C29.9034 30.2015 28.0361 31.1505 26.0238 31.1505C21.7585 31.1505 18.0172 26.4625 18.0172 21.1182V20.5694H18.017ZM21.1356 32.9913C22.6225 33.8678 24.284 34.3657 26.0236 34.3657C27.7311 34.3657 29.379 33.9236 30.8762 33.0869L30.877 33.6761C30.877 34.4732 31.1643 35.1415 31.6104 35.6881L26.0127 38.9918L20.4381 35.6471C20.8631 35.1092 21.1348 34.4561 21.1348 33.6817L21.1356 32.9913ZM8.80513 45.685C8.4768 45.685 8.31263 45.4978 8.31263 45.4538V43.7175C8.31263 41.7929 9.49635 39.5127 11.7591 38.8711L17.2051 37.4569L24.3984 41.7728V45.6832L8.80513 45.685ZM43.6989 43.7136V45.4499C43.6989 45.4941 43.5347 45.6812 43.2062 45.6812L27.6132 45.6828V41.7802L34.9029 37.4778L40.253 38.8673C42.5156 39.5093 43.6989 41.7891 43.6989 43.7136ZM19.5635 7.10529C19.5685 7.10529 19.5733 7.10469 19.5783 7.10449C19.6263 7.10408 19.6742 7.10188 19.722 7.09725C19.7377 7.09585 19.7527 7.09283 19.7682 7.09082C19.805 7.0862 19.8415 7.08138 19.8781 7.07414C19.8978 7.07033 19.9169 7.0649 19.9364 7.06008C19.9679 7.05264 19.9993 7.04541 20.0306 7.03597C20.0519 7.02954 20.0724 7.0215 20.0935 7.01407C20.1221 7.00422 20.1504 6.99458 20.1785 6.98292C20.2008 6.97368 20.2221 6.96283 20.2438 6.95278C20.2695 6.94072 20.2953 6.92927 20.3204 6.91581C20.3449 6.90275 20.3682 6.88788 20.3917 6.87361C20.4128 6.86095 20.4345 6.8489 20.4552 6.83503C20.4851 6.81494 20.5135 6.79304 20.542 6.77113C20.5547 6.76129 20.5681 6.75285 20.5806 6.7426C22.9458 4.8098 26.0153 5.54522 29.2653 6.32284C31.0144 6.7418 32.8108 7.1708 34.5549 7.17723C34.9741 8.72584 35.3862 11.47 34.9435 14.7387C32.3271 13.7856 26.1881 11.9276 18.0797 11.9276C18.0763 11.9276 18.0729 11.928 18.0695 11.928C18.0299 11.9282 17.9905 11.9308 17.9511 11.934C17.9363 11.9352 17.921 11.9356 17.9061 11.9372C17.8728 11.9408 17.8398 11.9466 17.8069 11.9523C17.7864 11.9559 17.7657 11.9585 17.7456 11.9627C17.7213 11.9679 17.6976 11.975 17.6736 11.9812C17.6461 11.9884 17.6184 11.9949 17.5913 12.0033C17.5756 12.0083 17.5603 12.015 17.5448 12.0204C17.5113 12.0322 17.4775 12.0439 17.445 12.058C17.4327 12.0632 17.4209 12.0698 17.4088 12.0754C17.3745 12.0913 17.3401 12.1072 17.3071 12.1253C17.2883 12.1355 17.2704 12.1476 17.2521 12.1588C17.227 12.1739 17.2014 12.1884 17.1773 12.2048C17.1468 12.2255 17.1177 12.2485 17.0885 12.2714C17.0777 12.2798 17.0662 12.2874 17.0558 12.2963C17.0218 12.3242 16.9895 12.3543 16.9579 12.3853C16.9529 12.3901 16.9473 12.3947 16.9422 12.3998C16.9137 12.4283 16.887 12.4588 16.8605 12.4898C16.853 12.4984 16.8448 12.5065 16.8376 12.5153C16.8171 12.5402 16.7984 12.5667 16.7793 12.5933C16.767 12.6099 16.7542 12.6262 16.7427 12.6435C16.7294 12.6636 16.7176 12.6847 16.7051 12.7054C16.6897 12.7309 16.6738 12.7564 16.6597 12.7831C16.6513 12.799 16.6441 12.8159 16.6362 12.8322C16.6258 12.8533 16.6149 12.8742 16.6055 12.8961C16.4944 12.1377 16.4244 11.4411 16.4244 10.8891C16.4242 9.14358 17.2463 7.10529 19.5635 7.10529Z" fill="black" stroke="white" strokeWidth="2" mask="url(#path-1-inside-1_2670_656)"/>
</svg>
