<svg width="64" height="65" viewBox="0 0 64 65" fill="none" xmlns="http://www.w3.org/2000/svg">
<g id="Frame" clip-path="url(#clip0_231_1250)">
<g id="Group">
<path id="Vector" d="M37.5107 37.8607L36.9698 38.0991V38.6902V56.4601C36.9698 57.1587 36.4882 57.5753 35.9686 57.5753H29.0431C28.4096 57.5753 27.9279 57.0547 27.9279 56.4601V38.6902V38.0894L27.3746 37.8554C22.9286 35.9748 19.8412 31.5124 19.8412 26.3424C19.8412 22.8605 21.1484 19.7454 23.3492 17.4822C23.351 18.4083 23.3542 19.5575 23.3599 20.707C23.3664 22.0113 23.3761 23.3187 23.3907 24.3012C23.398 24.7914 23.4067 25.2062 23.4169 25.5007C23.422 25.646 23.4278 25.7726 23.4348 25.8676C23.4381 25.9113 23.4431 25.9694 23.4517 26.0254C23.4551 26.047 23.4647 26.1089 23.4872 26.1806C23.4964 26.2099 23.525 26.2993 23.5881 26.3992L23.5886 26.4C23.6007 26.4192 23.6454 26.49 23.7262 26.5684L30.4238 33.2661L30.4239 33.2662C31.5243 34.3665 33.3734 34.3665 34.4738 33.2662L34.4738 33.2661L41.1815 26.5582L41.447 26.2928V25.9173V17.519C43.6946 19.8324 45.0565 22.8868 45.0565 26.3528C45.0565 31.5239 41.9973 35.8839 37.5107 37.8607ZM9.36557 31.5203H17.0035C18.2816 35.1334 20.9086 38.1562 24.197 40.08V50.7846H11.4805H10.5741V51.691V56.6986C10.5741 57.129 10.26 57.3887 9.98762 57.3887H2.10831C1.75874 57.3887 1.41814 57.0482 1.41814 56.6986V36.6789C1.41814 35.0168 1.69606 33.6461 2.59448 31.751C2.59483 31.7502 2.59519 31.7495 2.59555 31.7487L12.4194 11.3239C12.9151 10.3264 13.8293 9.35139 14.9454 8.62457C16.0644 7.89591 17.3075 7.4677 18.4164 7.4677H46.0769C47.2022 7.4677 48.4422 7.87497 49.5491 8.58513C50.6551 9.29465 51.5652 10.2664 52.0714 11.3187C52.0715 11.3188 52.0715 11.3188 52.0715 11.3189L61.8577 31.7519L61.861 31.7589L61.8645 31.7658C62.7562 33.5488 63.0545 34.9032 63.0545 36.6789V56.6882C63.0545 57.1185 62.7402 57.3784 62.4679 57.3784H54.5886C54.3165 57.3784 54.0022 57.1186 54.0022 56.6882V51.6806V50.7742H53.0958H40.3896V40.08C43.6789 38.1552 46.2966 35.1318 47.5816 31.5203H55.2211H56.6569L56.0394 30.2241L49.342 16.1657L49.338 16.1573L49.3338 16.149C48.6156 14.718 47.8815 13.6805 46.8394 13.0399C45.7959 12.3984 44.5786 12.2382 43.1014 12.2382H21.3919C19.9117 12.2382 18.7122 12.3975 17.6903 13.0471C16.6767 13.6916 15.974 14.7328 15.2632 16.149L15.2592 16.1571L15.2553 16.1652L8.5475 30.2236L7.92878 31.5203H9.36557ZM5.04824 41.0435C5.04824 44.3248 7.70597 46.8539 10.8585 46.8539C14.0097 46.8539 16.6687 44.3364 16.6687 41.0435C16.6687 37.7895 14.1622 35.1297 10.8585 35.1297C7.55355 35.1297 5.04824 37.8011 5.04824 41.0435ZM59.7561 41.0435C59.7561 37.7749 57.1108 35.1297 53.8422 35.1297C50.5489 35.1297 48.0318 37.7998 48.0318 41.0435C48.0318 44.3111 50.5617 46.8539 53.8422 46.8539C57.0988 46.8539 59.7561 44.324 59.7561 41.0435Z" stroke="#EA004F" stroke-width="1.81283"/>
</g>
</g>
<defs>
<clipPath id="clip0_231_1250">
<rect width="63.4492" height="63.4492" fill="white" transform="translate(0.511719 0.797119)"/>
</clipPath>
</defs>
</svg>
