<svg width="33" height="33" viewBox="0 0 33 33" fill="none" xmlns="http://www.w3.org/2000/svg">
<path d="M7.94905 1.13812L3.06372 3.09278C1.68779 3.60225 1.17627 4.29361 1.17627 5.64368V27.3493C1.17627 28.6995 1.68779 29.3908 3.05083 29.8961L7.95886 31.8596C8.20173 31.9515 8.44556 31.998 8.68431 31.998C9.72286 31.998 10.4767 31.13 10.4767 29.9338V3.06027C10.4767 1.59079 9.30482 0.627687 7.94905 1.13812ZM9.4433 29.9338C9.4433 30.5502 9.13843 30.9646 8.68431 30.9646C8.57114 30.9646 8.44919 30.9404 8.33294 30.897L3.42284 28.932C2.44787 28.5708 2.20967 28.2598 2.20967 27.3493V5.64368C2.20967 4.73326 2.44787 4.42276 3.43526 4.05692L8.32313 2.10177C8.44919 2.05424 8.5706 2.02996 8.68376 2.02996C9.13795 2.02996 9.4433 2.44381 9.4433 3.06027V29.9338Z" fill="black" stroke="black" strokeWidth="0.6"/>
<path d="M11.962 4.09395H19.2602C20.1148 4.09395 20.8103 4.78942 20.8103 5.64402V13.3944C20.8103 13.6796 21.0412 13.911 21.327 13.911C21.6127 13.911 21.8436 13.6796 21.8436 13.3944V5.64402C21.8436 4.21953 20.6847 3.06055 19.2602 3.06055H11.962C11.6768 3.06055 11.4453 3.29203 11.4453 3.57722C11.4453 3.86241 11.6768 4.09395 11.962 4.09395Z" fill="black" stroke="black" strokeWidth="0.6"/>
<path d="M21.3274 19.0781C21.0416 19.0781 20.8107 19.3096 20.8107 19.5948V27.3452C20.8107 28.1998 20.1152 28.8952 19.2606 28.8952H12.0269C11.7417 28.8952 11.5103 29.1267 11.5103 29.4119C11.5103 29.6971 11.7417 29.9286 12.0269 29.9286H19.2606C20.6851 29.9286 21.8441 28.7696 21.8441 27.3451V19.5947C21.844 19.3096 21.6131 19.0781 21.3274 19.0781Z" fill="black" stroke="black" strokeWidth="0.6"/>
<path d="M32.1379 16.2964C32.1115 16.2328 32.0738 16.176 32.0257 16.128L26.8593 10.9611C26.6573 10.7591 26.3307 10.7591 26.1287 10.9611C25.9267 11.1631 25.9267 11.4897 26.1287 11.6917L30.4137 15.9771H13.0601C12.7749 15.9771 12.5435 16.2085 12.5435 16.4937C12.5435 16.7789 12.7749 17.0104 13.0601 17.0104H30.4137L26.1287 21.2954C25.9267 21.4974 25.9267 21.824 26.1287 22.026C26.2295 22.1267 26.3618 22.1773 26.494 22.1773C26.6263 22.1773 26.7586 22.1267 26.8593 22.026L32.0257 16.8596C32.0738 16.8115 32.1115 16.7547 32.1379 16.6911C32.1901 16.5651 32.1901 16.4225 32.1379 16.2964Z" fill="black" stroke="black" strokeWidth="0.6"/>
</svg>
