<svg width="28" height="28" viewBox="0 0 28 28" fill="none" xmlns="http://www.w3.org/2000/svg">
<path d="M16.6161 4.35586L16.6163 4.35586C20.9342 4.35495 24.4465 7.80831 24.4484 12.086C24.4502 16.3575 20.9462 19.8117 16.6338 19.8199L16.6337 19.8199C12.3147 19.8272 8.79708 16.3757 8.78966 12.0973L8.78966 12.0964L8.78966 12.0964L8.78966 12.0964L8.78966 12.0964L8.78966 12.0964L8.78966 12.0963L8.78966 12.0963L8.78966 12.0963L8.78966 12.0963L8.78966 12.0963L8.78966 12.0962L8.78966 12.0962L8.78966 12.0962L8.78966 12.0962L8.78966 12.0962L8.78966 12.0961L8.78966 12.0961L8.78966 12.0961L8.78966 12.0961L8.78966 12.0961L8.78966 12.0961L8.78966 12.096L8.78966 12.096L8.78966 12.096L8.78966 12.096L8.78966 12.096L8.78966 12.0959L8.78966 12.0959L8.78966 12.0959L8.78966 12.0959L8.78966 12.0959L8.78966 12.0958L8.78966 12.0958L8.78966 12.0958L8.78966 12.0958L8.78966 12.0958L8.78966 12.0958L8.78966 12.0957L8.78966 12.0957L8.78966 12.0957L8.78966 12.0957L8.78966 12.0957L8.78966 12.0957L8.78966 12.0956L8.78966 12.0956L8.78966 12.0956L8.78966 12.0956L8.78966 12.0956L8.78966 12.0955L8.78966 12.0955L8.78966 12.0955L8.78966 12.0955L8.78966 12.0955L8.78966 12.0955L8.78966 12.0954L8.78966 12.0954L8.78966 12.0954L8.78966 12.0954L8.78966 12.0954L8.78966 12.0954L8.78966 12.0953L8.78966 12.0953L8.78966 12.0953L8.78966 12.0953L8.78966 12.0953L8.78966 12.0953L8.78966 12.0952L8.78966 12.0952L8.78966 12.0952L8.78966 12.0952L8.78966 12.0952L8.78966 12.0952L8.78966 12.0951L8.78966 12.0951L8.78966 12.0951L8.78966 12.0951L8.78966 12.0951L8.78966 12.0951L8.78966 12.095L8.78966 12.095L8.78966 12.095L8.78966 12.095L8.78966 12.095L8.78966 12.095L8.78966 12.0949L8.78966 12.0949L8.78966 12.0949L8.78966 12.0949L8.78966 12.0949L8.78966 12.0949L8.78966 12.0948L8.78966 12.0948L8.78966 12.0948L8.78966 12.0948L8.78966 12.0948L8.78966 12.0948L8.78966 12.0947L8.78966 12.0947L8.78966 12.0947L8.78966 12.0947L8.78966 12.0947L8.78966 12.0947L8.78966 12.0946L8.78966 12.0946L8.78966 12.0946L8.78966 12.0946L8.78966 12.0946L8.78966 12.0946L8.78966 12.0945L8.78966 12.0945L8.78966 12.0945L8.78966 12.0945L8.78966 12.0945L8.78966 12.0945L8.78966 12.0944L8.78966 12.0944L8.78966 12.0944L8.78966 12.0944L8.78966 12.0944L8.78966 12.0943L8.78966 12.0943L8.78966 12.0943L8.78966 12.0943L8.78966 12.0943L8.78966 12.0943L8.78966 12.0942L8.78966 12.0942L8.78966 12.0942L8.78966 12.0942L8.78966 12.0942L8.78966 12.0942L8.78966 12.0941L8.78966 12.0941L8.78966 12.0941L8.78966 12.0941L8.78966 12.0941L8.78966 12.0941L8.78966 12.094L8.78966 12.094L8.78966 12.094L8.78966 12.094L8.78966 12.094L8.78966 12.0939L8.78966 12.0939L8.78966 12.0939L8.78966 12.0939L8.78966 12.0939L8.78966 12.0939L8.78966 12.0938L8.78966 12.0938L8.78966 12.0938L8.78966 12.0938L8.78966 12.0938L8.78966 12.0937L8.78966 12.0937L8.78966 12.0937L8.78966 12.0937L8.78966 12.0937L8.78966 12.0936L8.78966 12.0936L8.78966 12.0936L8.78966 12.0936L8.78966 12.0936L8.78966 12.0935L8.78966 12.0935L8.78966 12.0935L8.78966 12.0935L8.78966 12.0935L8.78966 12.0934L8.78966 12.0934L8.78966 12.0934L8.78966 12.0934L8.78966 12.0934L8.78966 12.0933L8.78966 12.0933L8.78966 12.0933L8.78966 12.0933L8.78966 12.0933L8.78966 12.0932L8.78966 12.0932L8.78966 12.0932L8.78966 12.0932L8.78966 12.0932L8.78966 12.0931L8.78966 12.0931L8.78966 12.0931L8.78966 12.0931L8.78966 12.0931L8.78966 12.093L8.78966 12.093L8.78966 12.093L8.78966 12.093L8.78966 12.0929L8.78966 12.0929L8.78966 12.0929L8.78966 12.0929L8.78966 12.0929L8.78966 12.0928L8.78966 12.0928L8.78966 12.0928L8.78966 12.0928L8.78966 12.0927L8.78966 12.0927L8.78966 12.0927L8.78966 12.0927L8.78966 12.0927L8.78966 12.0926L8.78966 12.0926L8.78966 12.0926L8.78966 12.0926L8.78966 12.0925L8.78966 12.0925L8.78966 12.0925L8.78966 12.0925L8.78966 12.0924L8.78966 12.0924L8.78966 12.0924L8.78966 12.0924L8.78966 12.0923L8.78966 12.0923L8.78966 12.0923L8.78966 12.0923L8.78966 12.0922L8.78966 12.0922L8.78966 12.0922L8.78966 12.0922L8.78966 12.0921L8.78966 12.0921L8.78966 12.0921L8.78966 12.0921L8.78966 12.092L8.78966 12.092L8.78966 12.092L8.78966 12.092L8.78966 12.0919L8.78966 12.0919L8.78966 12.0919L8.78966 12.0919L8.78966 12.0918L8.78966 12.0918L8.78966 12.0918L8.78966 12.0918L8.78966 12.0917L8.78966 12.0917L8.78966 12.0917L8.78966 12.0917L8.78966 12.0917L8.78966 12.0917L8.78966 12.0916L8.78966 12.0916L8.78966 12.0916L8.78966 12.0916L8.78966 12.0916L8.78966 12.0916L8.78966 12.0916L8.78966 12.0915L8.78966 12.0915L8.78966 12.0915L8.78966 12.0915L8.78966 12.0915L8.78966 12.0915L8.78966 12.0914L8.78966 12.0914L8.78966 12.0914L8.78966 12.0914L8.78966 12.0914L8.78966 12.0914L8.78966 12.0913L8.78966 12.0913L16.6161 4.35586ZM16.6161 4.35586C12.2982 4.3586 8.78879 7.81461 8.78966 12.0913L16.6161 4.35586ZM10.3526 20.841L10.0097 20.6014L9.7133 20.8966L3.75165 26.8358C2.97357 27.5591 1.70472 27.5666 1.01471 26.8492L1.01455 26.849C0.303176 26.1101 0.332908 24.9448 1.08209 24.2426L1.08751 24.2375L1.09278 24.2323L7.20005 18.1565L7.47723 17.8807L7.27644 17.5453C5.10131 13.911 5.29141 9.35635 7.76412 5.91015L7.76414 5.91012C11.2304 1.07852 18.0139 -0.0679204 22.9141 3.35534L22.9141 3.35536C27.8111 6.77584 28.9667 13.4603 25.5034 18.287C22.0371 23.1178 15.2527 24.265 10.3526 20.841Z" fill="#818181" stroke="white"/>
</svg>
