<svg width="30" height="30" viewBox="0 0 30 30" fill="none" xmlns="http://www.w3.org/2000/svg">
<path d="M15 0C6.72905 0 0 6.72906 0 15C0 23.2709 6.72905 30 15 30C23.271 30 30 23.2709 30 15C30 6.72906 23.271 0 15 0ZM15 2.25C22.055 2.25 27.75 7.94504 27.75 15C27.75 22.055 22.055 27.75 15 27.75C7.94504 27.75 2.25 22.055 2.25 15C2.25 7.94504 7.94504 2.25 15 2.25ZM13.8574 5.98389C13.5593 5.98854 13.2752 6.11134 13.0676 6.3253C12.86 6.53925 12.7457 6.82688 12.75 7.125V15.375C12.7501 15.6733 12.8686 15.9595 13.0796 16.1704L16.8296 19.9204C16.9333 20.0284 17.0574 20.1146 17.1948 20.174C17.3322 20.2333 17.4801 20.2647 17.6297 20.2662C17.7794 20.2677 17.9279 20.2394 18.0664 20.1828C18.205 20.1262 18.3309 20.0426 18.4367 19.9367C18.5426 19.8309 18.6262 19.705 18.6828 19.5664C18.7394 19.4279 18.7677 19.2794 18.7662 19.1297C18.7647 18.9801 18.7333 18.8322 18.674 18.6948C18.6146 18.5574 18.5284 18.4333 18.4204 18.3296L15 14.9092V7.125C15.0022 6.97443 14.9741 6.82495 14.9174 6.68543C14.8607 6.54591 14.7766 6.41919 14.6701 6.31278C14.5635 6.20636 14.4367 6.12242 14.2971 6.06593C14.1575 6.00943 14.008 5.98153 13.8574 5.98389Z" fill="#9F9F9F"/>
</svg>
