<svg width="45" height="44" viewBox="0 0 45 44" fill="none" xmlns="http://www.w3.org/2000/svg">
<rect x="0.719727" y="0.359375" width="43.3264" height="43.6094" rx="10" fill="url(#paint0_linear_3317_12)"/>
<path d="M15.3663 15.7869C15.3738 11.9067 18.5145 8.77208 22.3889 8.77696C26.2713 8.78184 29.406 11.92 29.3998 15.7943C29.3937 19.6742 26.2512 22.8144 22.3802 22.8105C18.5102 22.8069 15.3588 19.6509 15.3663 15.7869L15.2163 15.7866L15.3663 15.7869ZM22.3815 18.9017C24.1012 18.9041 25.4935 17.5194 25.4966 15.8021C25.4998 14.0752 24.1103 12.6769 22.3878 12.6758C20.6714 12.6748 19.2784 14.0626 19.2735 15.7788C19.2686 17.5078 20.6531 18.8992 22.3815 18.9017Z" fill="white" stroke="#F97000" strokeWidth="0.3"/>
<path d="M20.1627 28.3174C19.7119 28.2179 19.2924 28.1032 18.88 27.9594C17.852 27.6011 16.877 27.1211 15.9943 26.4374C15.3772 25.9596 15.1071 25.2979 15.2568 24.4867C15.4065 23.6764 15.8857 23.1756 16.6273 23.0034C17.0856 22.8971 17.5272 22.9898 17.9094 23.2871C18.8691 24.0331 19.9447 24.455 21.0961 24.6518C22.6492 24.9173 24.1588 24.7287 25.6107 24.055C26.0378 23.857 26.4396 23.6114 26.8179 23.3149C27.5856 22.7123 28.6695 22.9139 29.2212 23.751C29.7792 24.5978 29.6117 25.768 28.8325 26.3902C27.8311 27.1899 26.7108 27.7187 25.5231 28.0871C25.2737 28.1643 25.0205 28.2263 24.7158 28.3097C24.7992 28.3853 24.8631 28.434 24.9176 28.4932C26.1399 29.8149 27.3637 31.1347 28.5817 32.4612C29.2697 33.2108 29.2677 34.4052 28.589 35.1454C27.914 35.8813 26.8428 35.8855 26.142 35.1447C25.1113 34.0556 24.0866 32.9601 23.0592 31.8671C22.8722 31.6681 22.6805 31.4736 22.4995 31.2681C22.4214 31.1792 22.3794 31.1857 22.3042 31.2739C21.4641 32.258 20.6198 33.2382 19.7767 34.2194C19.5202 34.5176 19.2693 34.8216 19.0055 35.1118C18.5242 35.6413 17.9414 35.8235 17.2858 35.6216C16.6176 35.4158 16.1999 34.9182 16.0596 34.1745C15.9381 33.5296 16.1019 32.9584 16.5182 32.4819C17.5825 31.2626 18.6505 30.0469 19.7169 28.8298C19.8598 28.6667 20.0015 28.5029 20.1627 28.3174Z" fill="white"/>
<defs>
<linearGradient id="paint0_linear_3317_12" x1="22.3829" y1="0.359375" x2="22.3829" y2="43.9688" gradientUnits="userSpaceOnUse">
<stop stop-color="#F97A00"/>
<stop offset="1" stop-color="#F95D00"/>
</linearGradient>
</defs>
</svg>
