<svg width="124" height="124" viewBox="0 0 124 124" fill="none" xmlns="http://www.w3.org/2000/svg">
<circle cx="62" cy="62" r="62" fill="#445E77"/>
<path d="M80.289 41.0243C79.4246 40.944 78.4851 41.0622 77.5411 41.3891C76.3708 41.7923 58.0334 48.5489 40.9396 54.8519L35.2914 56.9341C33.1043 57.7108 32 58.9741 32 60.6757C32 61.8671 32.5756 63.483 35.3219 64.4352L44.8557 67.7808C45.6801 69.9471 47.5949 74.977 48.076 76.3141C48.3621 77.1068 49.0846 79.1038 50.9103 79.5708C51.2848 79.6824 51.6755 79.7399 52.0734 79.7399C53.2255 79.7399 54.055 79.2702 54.4607 78.9969L60.5203 74.5078L67.8802 80.4695C68.1637 80.7224 69.6641 82 71.6796 82C74.1943 82 76.1019 80.1663 76.4998 78.3918C76.7157 77.4192 83.814 46.2073 83.814 46.2119C84.4512 43.7084 83.3056 42.4098 82.5696 41.8562C81.9389 41.3836 81.1534 41.1046 80.289 41.0243ZM80.289 44.1005C79.3086 48.4058 72.4909 75.0046 71.6796 78.3918L60.6727 68.4215L53.3737 73.836L55.3953 66.9088C55.3953 66.9088 69.3412 54.544 70.1812 53.8242C70.8573 53.2479 70.9989 53.0458 70.9989 52.8454C70.9989 52.5789 70.8423 52.3871 70.4808 52.3871C70.1558 52.3871 69.7143 52.66 69.4802 52.7876C66.5068 54.4113 53.8456 60.7294 47.6138 63.8345L36.8173 60.6757L43.0951 58.2085C54.2751 54.0855 75.7743 45.7452 80.289 44.1005Z" fill="white"/>
</svg>
